DataType=double
version=3
OpenSimVersion=4.4-2022-07-23-0e9fedc
endheader
time	Glut_Max_l	Glut_Med_l	Rect_Fem_l	Vast_Lat_l	Bice_Fem_l	Tibi_Ant_l	Gast_Med_l	Sol_l	Gast_Lat_l	Pero_Lon_l	Glut_Max_r	Glut_Med_r	Rect_Fem_r	Vast_Lat_r	Bice_Fem_r	Tibi_Ant_r	Gast_Med_r	Sol_r	Gast_Lat_r	Pero_Lon_r
6.56	0.161289414335836	0.1441913604573641	0.03819397133146567	0.1626120058286264	0.1093204963163495	0.08194282486746696	0.2915986415169931	0.04965485660034152	0.1157196014906124	0.141458015678709	0.09733454253134802	0.06722859336035227	0.04055144027261051	0.05593357056949714	0.03219157576644513	0.03224431866292149	0.2493131797718732	0.6328803674240555	0.3018844825206111	0.08614856617076481
6.561	0.1634126301822835	0.1454490369136313	0.03821573014746169	0.1652688588040403	0.1090411952454856	0.08277571827186241	0.2923862740864411	0.04954892154130127	0.1167921948744203	0.1407709573135169	0.09722323801093563	0.06663733501964408	0.04071955257153826	0.05588603528599484	0.03221261144800378	0.03226552600234525	0.2478525034363558	0.6329946126731084	0.2999099666962293	0.08637007781638109
6.562	0.1655176070434758	0.1467718447564209	0.03824832278426692	0.1679386781160325	0.1087580501447652	0.08358389402118932	0.2931971949433655	0.04944270896813105	0.1178711707412402	0.1400531490334571	0.09712249089029359	0.06607777351738732	0.0408826948980142	0.05583406568659004	0.03223326072744434	0.03228356912942647	0.2463148334141154	0.6331000314004152	0.2978598099945464	0.086585630662337
6.563000000000001	0.1676027996760203	0.1481600331558495	0.0382923170720632	0.1706210064846306	0.1084710418632656	0.08436634847947846	0.2940308609341625	0.04933631998774324	0.1189559537122408	0.1393051870072272	0.09703225460579908	0.06554976964711005	0.0410406430922771	0.05577766897341794	0.03225349742649504	0.03229851565448167	0.2447018814880493	0.6331950752879459	0.2957358691287153	0.08679452760332454
6.564	0.1696666780910286	0.1496138016151886	0.03834828399403521	0.1733154111947215	0.108180163490382	0.0851221112275318	0.2948866859672279	0.04922985596799782	0.1200459404724824	0.1385277224260787	0.09695247008709237	0.06505316432847241	0.0411931794975939	0.05571685802119031	0.03227329425916426	0.03231043782873829	0.2430154587373627	0.6332782551167258	0.2935400877278059	0.08699610761285285
6.565	0.1717077301878761	0.1511332996566299	0.03841679714692903	0.1760214848891415	0.1078854209910736	0.08585024608930328	0.2957640410514602	0.04912341844994279	0.1211404999902453	0.1377214616474222	0.09688306584640999	0.06458777907621083	0.04134009324265229	0.05565165132369179	0.03229262282425644	0.03231941240807496	0.2412574724881902	0.6333481496650173	0.2912744931991215	0.08718974732484286
6.566000000000001	0.1737244644068633	0.1527186265708715	0.03849843218016336	0.1787388462649887	0.1075868337710311	0.08654985211000453	0.2966622544439328	0.04901710905955161	0.1222389738143451	0.1368871662843923	0.09682395807884453	0.06415341648001086	0.04148118051796146	0.05558207293304833	0.03231145359908043	0.03232552051111619	0.239429923112261	0.6334034143762229	0.288941193489485	0.08737486254659524
6.567	0.1757154123954059	0.1543698312306861	0.03859376621355607	0.1814671406682863	0.1072844351704444	0.08722006448296304	0.2975806119099997	0.04891102941902516	0.1233406764507725	0.1360256532421181	0.09677505077320948	0.06374986069353247	0.04161624484599911	0.05550815239199476	0.03232975593447741	0.03232884747153673	0.2375349006836291	0.6334427897585463	0.2865423737550201	0.08755090969909411
6.568000000000001	0.1776791316825006	0.1560869119687328	0.03870337723375876	0.1842060405822181	0.1069782728859908	0.08786005542232343	0.2985183570986345	0.04880528105781064	0.1244448958199287	0.1351377947014963	0.09673623583324219	0.06337687793087715	0.04174509734482199	0.05542992465937705	0.03234749805133957	0.03232948268434252	0.235574581503104	0.6334651094795944	0.2840802929481023	0.08771738718066971
6.569	0.1796142083562896	0.1578698165198663	0.03882784346947785	0.1869552460044973	0.1066684093214312	0.08846903497869742	0.2994746920352248	0.04869996532356392	0.1255508937955804	0.1342245180516645	0.09670739320905522	0.06303421696885085	0.04186755698480823	0.05534743002907722	0.03236464703881957	0.03232751944580994	0.2335512244996172	0.6334693081212129	0.2815572803293682	0.0878738366501816
6.57	0.1815192597394797	0.1597184420280432	0.03896774274554266	0.1897144847100432	0.1063549218677243	0.08904625179492796	0.3004487777335734	0.0485951832933543	0.1266579068264231	0.1332868057729778	0.09668839103898014	0.06272160965349077	0.04198345083816053	0.05526071404244418	0.03238116885444668	0.03232305478668672	0.231467167517316	0.6334544285620454	0.2789757319119797	0.08801984422608866
6.571000000000001	0.1833929370571425	0.1616326351177145	0.03912365181588611	0.1924835123958907	0.1060379031138869	0.08959099379932942	0.3014397349286436	0.04849103568547401	0.1277651466408407	0.1323256952728037	0.09667908580212474	0.06243877140948815	0.04209261432080125	0.0551698273942003	0.03239702832639217	0.03231618929819689	0.2293248234966513	0.6334196289567966	0.2763381068447441	0.08815504159797917
6.572	0.1852339280910182	0.16361219202945	0.0392961456755535	0.1952621127060549	0.1057174609899424	0.09010258883412348	0.3024466449315572	0.04838762277226557	0.1288718010351168	0.1313422786766574	0.09667932248205117	0.0621854017513512	0.04219489142632906	0.05507482583173404	0.03241218915817151	0.03230702695035955	0.227126676557129	0.6333641892819499	0.2736469237401358	0.08827910704726455
6.573	0.1870409598139117	0.1656568588194941	0.03948579685196636	0.1980500971350222	0.105393718843285	0.09058040521729818	0.303468550608306	0.0482850442944209	0.1299770347450175	0.1303377025771714	0.09668893474203766	0.06196118479540096	0.04229013495175065	0.0549757700477345	0.03242661393611262	0.03229567490214642	0.2248752779888199	0.6332875174182037	0.2709047569527305	0.0883917663737501
6.574	0.1888128009971614	0.1677663316229242	0.03969317467582192	0.2008473048098697	0.1050668154497359	0.09102385223681832	0.3045044574833976	0.04818339937722815	0.1310799904003301	0.1293131677432948	0.09670774511248335	0.06176578977194461	0.04237820671472187	0.05487272556625904	0.03244026413992727	0.03228224330307505	0.2225732421593363	0.6331891547404268	0.2681142328129574	0.08849279372474229
6.575	0.1905482647835178	0.1699402569800195	0.03991884453215681	0.203653602152732	0.1047369049606057	0.09143238057710278	0.3055533349692475	0.04808278644923231	0.1321797895616409	0.1282699287920008	0.0967355651911832	0.06159887153716682	0.04245897776203057	0.05476576262247596	0.0324531001566938	0.03226684508594314	0.2202232423428565	0.6330687811866476	0.2652780258203929	0.08858201232337705
6.576000000000001	0.1922462112171328	0.1721782322253669	0.04016336709221659	0.2064688824270805	0.1044041567872204	0.09180548267891683	0.3066141177217147	0.04798330316373388	0.1332755338383554	0.1272092938246254	0.09677219585740394	0.06146007108438672	0.04253232856904537	0.05465495603640861	0.03246508129850985	0.03224959575051671	0.2178280064778647	0.632926219778653	0.2623988548001172	0.08865929509306968
